<svg width="43" height="47" viewBox="0 0 43 47" fill="none" xmlns="http://www.w3.org/2000/svg">
<path d="M34.0413 39.1666H8.95801V41.125C8.95801 41.6444 8.76924 42.1425 8.43324 42.5097C8.09724 42.877 7.64152 43.0833 7.16634 43.0833H5.37467C4.8995 43.0833 4.44378 42.877 4.10777 42.5097C3.77177 42.1425 3.58301 41.6444 3.58301 41.125V23.5L8.08547 10.3752C8.34155 9.6285 8.80008 8.98501 9.39975 8.53078C9.99942 8.07655 10.7117 7.83321 11.4413 7.83331H31.5581C32.2877 7.83321 32.9999 8.07655 33.5996 8.53078C34.1993 8.98501 34.6578 9.6285 34.9139 10.3752L39.4163 23.5V41.125C39.4163 41.6444 39.2276 42.1425 38.8916 42.5097C38.5556 42.877 38.0999 43.0833 37.6247 43.0833H35.833C35.3578 43.0833 34.9021 42.877 34.5661 42.5097C34.2301 42.1425 34.0413 41.6444 34.0413 41.125V39.1666ZM7.41001 23.5H35.5893L31.5581 11.75H11.4413L7.41001 23.5ZM11.6455 33.2916C12.3583 33.2916 13.0419 32.9822 13.5459 32.4313C14.0499 31.8804 14.333 31.1332 14.333 30.3541C14.333 29.5751 14.0499 28.8279 13.5459 28.277C13.0419 27.7261 12.3583 27.4166 11.6455 27.4166C10.9327 27.4166 10.2492 27.7261 9.74516 28.277C9.24115 28.8279 8.95801 29.5751 8.95801 30.3541C8.95801 31.1332 9.24115 31.8804 9.74516 32.4313C10.2492 32.9822 10.9327 33.2916 11.6455 33.2916ZM31.3538 33.2916C32.0666 33.2916 32.7502 32.9822 33.2542 32.4313C33.7582 31.8804 34.0413 31.1332 34.0413 30.3541C34.0413 29.5751 33.7582 28.8279 33.2542 28.277C32.7502 27.7261 32.0666 27.4166 31.3538 27.4166C30.6411 27.4166 29.9575 27.7261 29.4535 28.277C28.9495 28.8279 28.6663 29.5751 28.6663 30.3541C28.6663 31.1332 28.9495 31.8804 29.4535 32.4313C29.9575 32.9822 30.6411 33.2916 31.3538 33.2916Z" fill="#595959"/>
</svg>
