<svg width="46" height="46" viewBox="0 0 46 46" fill="none" xmlns="http://www.w3.org/2000/svg">
<path d="M7.66699 29.7083V11.5C7.66699 9.80694 8.10655 8.45697 8.98566 7.45008C9.86477 6.44319 11.0224 5.67652 12.4587 5.15008C13.8949 4.62363 15.5324 4.27224 17.3711 4.09591C19.2098 3.91958 21.0862 3.83205 23.0003 3.83333C25.1087 3.83333 27.0975 3.92149 28.9669 4.09783C30.8363 4.27416 32.4655 4.62555 33.8544 5.15199C35.2434 5.67844 36.3371 6.4451 37.1357 7.45199C37.9344 8.45888 38.3337 9.80822 38.3337 11.5V29.7083C38.3337 31.593 37.6871 33.1826 36.394 34.477C35.1009 35.7714 33.5113 36.4179 31.6253 36.4167L34.5003 39.2917V40.25H30.667L26.8337 36.4167H19.167L15.3337 40.25H11.5003V39.2917L14.3753 36.4167C12.4906 36.4167 10.901 35.7701 9.60666 34.477C8.31227 33.1839 7.66572 31.5943 7.66699 29.7083ZM11.5003 19.1667H21.0837V13.4167H11.5003V19.1667ZM24.917 19.1667H34.5003V13.4167H24.917V19.1667ZM16.292 30.6667C17.1225 30.6667 17.8094 30.3951 18.3524 29.8521C18.8955 29.309 19.167 28.6222 19.167 27.7917C19.167 26.9611 18.8955 26.2743 18.3524 25.7312C17.8094 25.1882 17.1225 24.9167 16.292 24.9167C15.4614 24.9167 14.7746 25.1882 14.2316 25.7312C13.6885 26.2743 13.417 26.9611 13.417 27.7917C13.417 28.6222 13.6885 29.309 14.2316 29.8521C14.7746 30.3951 15.4614 30.6667 16.292 30.6667ZM29.7087 30.6667C30.5392 30.6667 31.226 30.3951 31.7691 29.8521C32.3121 29.309 32.5837 28.6222 32.5837 27.7917C32.5837 26.9611 32.3121 26.2743 31.7691 25.7312C31.226 25.1882 30.5392 24.9167 29.7087 24.9167C28.8781 24.9167 28.1913 25.1882 27.6482 25.7312C27.1052 26.2743 26.8337 26.9611 26.8337 27.7917C26.8337 28.6222 27.1052 29.309 27.6482 29.8521C28.1913 30.3951 28.8781 30.6667 29.7087 30.6667Z" fill="#595959"/>
</svg>
