<svg width="13" height="26" viewBox="0 0 13 26" fill="none" xmlns="http://www.w3.org/2000/svg">
<path d="M8.125 3.25001C8.125 2.65079 7.79492 2.10235 7.2668 1.81798C6.73867 1.5336 6.09883 1.56407 5.60117 1.89923L0.726172 5.14923C-0.0253906 5.64688 -0.223438 6.65235 0.274219 7.40391C0.771875 8.15548 1.78242 8.35352 2.52891 7.85587L4.875 6.28673V21.125H1.625C0.726172 21.125 0 21.8512 0 22.75C0 23.6488 0.726172 24.375 1.625 24.375H11.375C12.2738 24.375 13 23.6488 13 22.75C13 21.8512 12.2738 21.125 11.375 21.125H8.125V3.25001Z" fill="#2B2B2B"/>
</svg>
