<svg width="16" height="25" viewBox="0 0 16 25" fill="none" xmlns="http://www.w3.org/2000/svg">
<g clip-path="url(#clip0_3154_119)">
<path d="M7.14484 4.6875C6.06984 4.6875 5.03484 5.10254 4.27484 5.84961L2.72984 7.35352C2.10484 7.96387 1.08984 7.96387 0.464844 7.35352C-0.160156 6.74316 -0.160156 5.75195 0.464844 5.1416L2.00984 3.6377C3.37484 2.30957 5.21984 1.5625 7.14484 1.5625C11.1498 1.5625 14.3998 4.73633 14.3998 8.64746C14.3998 10.5273 13.6348 12.3291 12.2748 13.6572L5.46484 20.3125H14.3998C15.2848 20.3125 15.9998 21.0107 15.9998 21.875C15.9998 22.7393 15.2848 23.4375 14.3998 23.4375H1.59984C0.954844 23.4375 0.369844 23.0566 0.119844 22.4707C-0.130156 21.8848 0.00984373 21.2158 0.464844 20.7666L10.0098 11.4502C10.7698 10.708 11.1998 9.69727 11.1998 8.64746C11.1998 6.45996 9.38484 4.6875 7.14484 4.6875Z" fill="#2B2B2B"/>
</g>
<defs>
<clipPath id="clip0_3154_119">
<rect width="16" height="25" fill="white"/>
</clipPath>
</defs>
</svg>
