<svg width="14" height="20" viewBox="0 0 14 20" fill="none" xmlns="http://www.w3.org/2000/svg">
<path d="M0 1.42857C0 0.638393 0.625625 0 1.4 0H11.9C12.4775 0 12.9937 0.361607 13.2037 0.910714C13.4137 1.45982 13.2694 2.08482 12.845 2.48214L7.10063 7.85714H8.05C11.3356 7.85714 14 10.5759 14 13.9286C14 17.2812 11.3356 20 8.05 20H4.61125C2.75625 20 1.05875 18.9286 0.231875 17.2366L0.14875 17.067C-0.196875 16.3616 0.083125 15.5045 0.774375 15.1518C1.46563 14.7991 2.30562 15.0848 2.65125 15.7902L2.73438 15.9598C3.08875 16.6875 3.81938 17.1429 4.61125 17.1429H8.05C9.79125 17.1429 11.2 15.7054 11.2 13.9286C11.2 12.1518 9.79125 10.7143 8.05 10.7143H3.5C2.9225 10.7143 2.40625 10.3527 2.19625 9.80357C1.98625 9.25447 2.13063 8.62946 2.555 8.23214L8.29937 2.85714H1.4C0.625625 2.85714 0 2.21875 0 1.42857Z" fill="#2B2B2B"/>
</svg>
