<svg width="17" height="23" viewBox="0 0 17 23" fill="none" xmlns="http://www.w3.org/2000/svg">
<g clip-path="url(#clip0_3156_176)">
<path d="M8.36756 3.48595C8.69959 2.7672 8.39855 1.9092 7.69021 1.57228C6.98188 1.23537 6.13631 1.54084 5.80428 2.25959L0.133182 14.4828C-0.0748912 14.9276 -0.0394746 15.4487 0.217296 15.8664C0.474067 16.2842 0.930057 16.5313 1.41704 16.5313H11.3337V20.125C11.3337 20.9201 11.9668 21.5625 12.7504 21.5625C13.534 21.5625 14.167 20.9201 14.167 20.125V16.5313H15.5837C16.3673 16.5313 17.0004 15.8889 17.0004 15.0938C17.0004 14.2986 16.3673 13.6563 15.5837 13.6563H14.167V7.18752C14.167 6.3924 13.534 5.75002 12.7504 5.75002C11.9668 5.75002 11.3337 6.3924 11.3337 7.18752V13.6563H3.64829L8.36756 3.48595Z" fill="#2B2B2B"/>
</g>
<defs>
<clipPath id="clip0_3156_176">
<rect width="17" height="23" fill="white"/>
</clipPath>
</defs>
</svg>
