<svg width="32" height="32" viewBox="0 0 32 32" fill="none" xmlns="http://www.w3.org/2000/svg">
<path d="M15.9969 0C14.4156 0 13.0469 0.91875 12.3969 2.25C11.9594 2.0875 11.4906 2 10.9969 2C8.79062 2 6.99687 3.79375 6.99687 6V16.3438L6.82812 16.175C5.26562 14.6125 2.73438 14.6125 1.17188 16.175C-0.390625 17.7375 -0.390625 20.2687 1.17188 21.8312L6.65312 27.3125C9.65312 30.3125 13.7219 32 17.9656 32H18.9969C19.0906 32 19.1844 31.9937 19.2781 31.975C25.0094 31.5875 29.5906 27.0125 29.9719 21.2812C29.9906 21.1875 29.9969 21.0938 29.9969 21V10C29.9969 7.79375 28.2031 6 25.9969 6C25.6531 6 25.3156 6.04375 24.9969 6.125V6C24.9969 3.79375 23.2031 2 20.9969 2C20.5031 2 20.0344 2.0875 19.5969 2.25C18.9469 0.91875 17.5781 0 15.9969 0ZM14.9969 6.00625V4C14.9969 3.45 15.4469 3 15.9969 3C16.5469 3 16.9969 3.45 16.9969 4V14.5C16.9969 15.3313 17.6656 16 18.4969 16C19.3281 16 19.9969 15.3313 19.9969 14.5V5.99375C19.9969 5.44375 20.4469 4.99375 20.9969 4.99375C21.5469 4.99375 21.9969 5.44375 21.9969 5.99375V14.4937C21.9969 15.325 22.6656 15.9937 23.4969 15.9937C24.3281 15.9937 24.9969 15.325 24.9969 14.4937V9.99375C24.9969 9.44375 25.4469 8.99375 25.9969 8.99375C26.5469 8.99375 26.9969 9.44375 26.9969 9.99375V20.8C26.9906 20.8375 26.9906 20.8813 26.9844 20.9188C26.7719 25.275 23.2781 28.7688 18.9219 28.9813C18.8844 28.9813 18.8406 28.9875 18.8031 28.9937H17.9656C14.5156 28.9937 11.2094 27.625 8.77187 25.1875L3.29063 19.7062C2.90313 19.3187 2.90313 18.6813 3.29063 18.2938C3.67813 17.9062 4.31563 17.9062 4.70312 18.2938L7.43437 21.025C7.86562 21.4562 8.50937 21.5813 9.07187 21.35C9.63437 21.1187 9.99687 20.5688 9.99687 19.9625V6C9.99687 5.45 10.4469 5 10.9969 5C11.5469 5 11.9969 5.44375 11.9969 5.99375V14.5C11.9969 15.3313 12.6656 16 13.4969 16C14.3281 16 14.9969 15.3313 14.9969 14.5V6.00625Z" fill="#2B2B2B"/>
</svg>
