<svg width="38" height="39" viewBox="0 0 38 39" fill="none" xmlns="http://www.w3.org/2000/svg">
<path d="M32.4184 37.8625L28.46 33.8C28.3545 34.3417 28.0837 34.8021 27.6478 35.1812C27.2118 35.5604 26.7041 35.75 26.1246 35.75H5.54128C4.88155 35.75 4.32105 35.5133 3.85978 35.0399C3.3985 34.5665 3.16733 33.9907 3.16628 33.3125V17.7125C3.16628 17.0354 3.39744 16.4602 3.85978 15.9867C4.32211 15.5133 4.88261 15.2761 5.54128 15.275H9.73711L10.0538 14.9094L1.06836 5.6875L3.32461 3.37188L34.6746 35.5469L32.4184 37.8625ZM6.33294 32.5H25.3329V30.5906L21.2559 26.4062C20.9656 27.7062 20.3254 28.776 19.3353 29.6156C18.3452 30.4552 17.1777 30.875 15.8329 30.875C14.3024 30.875 12.9961 30.3198 11.9142 29.2094C10.8322 28.099 10.2913 26.7583 10.2913 25.1875C10.2913 23.8062 10.7003 22.6081 11.5184 21.593C12.3364 20.5779 13.3788 19.9209 14.6454 19.6219L13.5767 18.525H6.33294V32.5ZM15.8329 27.625C16.4927 27.625 17.0537 27.3883 17.516 26.9149C17.9784 26.4415 18.209 25.8657 18.2079 25.1875C18.2069 24.5093 17.9762 23.9341 17.516 23.4617C17.0558 22.9894 16.4948 22.7522 15.8329 22.75C15.1711 22.7478 14.6106 22.9851 14.1514 23.4617C13.6923 23.9384 13.4611 24.5137 13.4579 25.1875C13.4548 25.8613 13.6859 26.4371 14.1514 26.9149C14.6169 27.3926 15.1774 27.6293 15.8329 27.625ZM28.4996 24.5781L25.3329 21.3281V18.525H22.6017L17.2184 13H19.91L21.9288 15.275H26.1246C26.7843 15.275 27.3454 15.5122 27.8077 15.9867C28.27 16.4612 28.5007 17.0365 28.4996 17.7125V24.5781ZM30.0829 17.875V11.375H28.4996V3.25H34.8329L32.2996 9.1H34.8329L30.0829 17.875Z" fill="#2B2B2B"/>
</svg>
