<svg width="22" height="22" viewBox="0 0 22 22" fill="none" xmlns="http://www.w3.org/2000/svg">
<g id="ri:car-fill" clip-path="url(#clip0_2993_234)">
<path id="Vector" d="M18.7 19.4333H3.3V20.625C3.3 20.941 3.18411 21.2441 2.97782 21.4676C2.77153 21.6911 2.49174 21.8167 2.2 21.8167H1.1C0.808262 21.8167 0.528473 21.6911 0.322183 21.4676C0.115892 21.2441 0 20.941 0 20.625V9.89999L2.7643 1.91344C2.92153 1.45905 3.20304 1.06748 3.57121 0.791069C3.93938 0.514663 4.37666 0.366593 4.8246 0.366653H17.1754C17.6233 0.366593 18.0606 0.514663 18.4288 0.791069C18.797 1.06748 19.0785 1.45905 19.2357 1.91344L22 9.89999V20.625C22 20.941 21.8841 21.2441 21.6778 21.4676C21.4715 21.6911 21.1917 21.8167 20.9 21.8167H19.8C19.5083 21.8167 19.2285 21.6911 19.0222 21.4676C18.8159 21.2441 18.7 20.941 18.7 20.625V19.4333ZM2.3496 9.89999H19.6504L17.1754 2.74999H4.8246L2.3496 9.89999ZM4.95 15.8583C5.38761 15.8583 5.80729 15.67 6.11673 15.3348C6.42616 14.9996 6.6 14.5449 6.6 14.0708C6.6 13.5967 6.42616 13.1421 6.11673 12.8069C5.80729 12.4716 5.38761 12.2833 4.95 12.2833C4.51239 12.2833 4.09271 12.4716 3.78327 12.8069C3.47384 13.1421 3.3 13.5967 3.3 14.0708C3.3 14.5449 3.47384 14.9996 3.78327 15.3348C4.09271 15.67 4.51239 15.8583 4.95 15.8583ZM17.05 15.8583C17.4876 15.8583 17.9073 15.67 18.2167 15.3348C18.5262 14.9996 18.7 14.5449 18.7 14.0708C18.7 13.5967 18.5262 13.1421 18.2167 12.8069C17.9073 12.4716 17.4876 12.2833 17.05 12.2833C16.6124 12.2833 16.1927 12.4716 15.8833 12.8069C15.5738 13.1421 15.4 13.5967 15.4 14.0708C15.4 14.5449 15.5738 14.9996 15.8833 15.3348C16.1927 15.67 16.6124 15.8583 17.05 15.8583Z" fill="#595959"/>
</g>
<defs>
<clipPath id="clip0_2993_234">
<rect width="22" height="22" fill="white"/>
</clipPath>
</defs>
</svg>
