<svg width="20" height="23" viewBox="0 0 20 23" fill="none" xmlns="http://www.w3.org/2000/svg">
<g id="&#233;&#155;&#187;&#232;&#187;&#138;&#227;&#130;&#162;&#227;&#130;&#164;&#227;&#130;&#179;&#227;&#131;&#179;" clip-path="url(#clip0_2993_230)">
<path id="Vector" d="M-0.166014 16.7292V5.25C-0.166014 4.18263 0.111097 3.33156 0.665319 2.69679C1.21954 2.06201 1.94937 1.57868 2.85482 1.24679C3.76026 0.914898 4.79258 0.693371 5.95178 0.582204C7.11097 0.471037 8.29393 0.415857 9.50065 0.416662C10.8298 0.416662 12.0837 0.472246 13.2622 0.583412C14.4407 0.694579 15.4678 0.916107 16.3434 1.248C17.2191 1.57988 17.9086 2.06322 18.4121 2.698C18.9156 3.33277 19.1673 4.18344 19.1673 5.25V16.7292C19.1673 17.9174 18.7597 18.9195 17.9445 19.7355C17.1293 20.5515 16.1272 20.9591 14.9382 20.9583L16.7507 22.7708V23.375H14.334L11.9173 20.9583H7.08399L4.66732 23.375H2.25065V22.7708L4.06315 20.9583C2.87496 20.9583 1.87285 20.5507 1.05682 19.7355C0.240791 18.9203 -0.16682 17.9182 -0.166014 16.7292ZM2.25065 10.0833H8.29232V6.45833H2.25065V10.0833ZM10.709 10.0833H16.7507V6.45833H10.709V10.0833ZM5.27149 17.3333C5.7951 17.3333 6.22808 17.1621 6.57044 16.8198C6.91281 16.4774 7.08399 16.0444 7.08399 15.5208C7.08399 14.9972 6.91281 14.5642 6.57044 14.2219C6.22808 13.8795 5.7951 13.7083 5.27149 13.7083C4.74787 13.7083 4.31489 13.8795 3.97253 14.2219C3.63017 14.5642 3.45899 14.9972 3.45899 15.5208C3.45899 16.0444 3.63017 16.4774 3.97253 16.8198C4.31489 17.1621 4.74787 17.3333 5.27149 17.3333ZM13.7298 17.3333C14.2534 17.3333 14.6864 17.1621 15.0288 16.8198C15.3711 16.4774 15.5423 16.0444 15.5423 15.5208C15.5423 14.9972 15.3711 14.5642 15.0288 14.2219C14.6864 13.8795 14.2534 13.7083 13.7298 13.7083C13.2062 13.7083 12.7732 13.8795 12.4309 14.2219C12.0885 14.5642 11.9173 14.9972 11.9173 15.5208C11.9173 16.0444 12.0885 16.4774 12.4309 16.8198C12.7732 17.1621 13.2062 17.3333 13.7298 17.3333Z" fill="#595959"/>
</g>
<defs>
<clipPath id="clip0_2993_230">
<rect width="20" height="23" fill="white"/>
</clipPath>
</defs>
</svg>
