<svg width="78" height="79" viewBox="0 0 78 79" fill="none" xmlns="http://www.w3.org/2000/svg">
<path d="M66.5434 76.6957L58.4184 68.4666C58.2017 69.5638 57.6459 70.4964 56.7511 71.2645C55.8563 72.0326 54.8141 72.4166 53.6246 72.4166H11.3746C10.0204 72.4166 8.86994 71.9371 7.92311 70.9781C6.97628 70.0192 6.50178 68.8528 6.49961 67.4791V35.8791C6.49961 34.5076 6.97411 33.3423 7.92311 32.3833C8.87211 31.4244 10.0226 30.9438 11.3746 30.9416H19.9871L20.6371 30.201L2.19336 11.5208L6.82461 6.83013L71.1746 72.0051L66.5434 76.6957ZM12.9996 65.8332H51.9996V61.9655L43.6309 53.4895C43.035 56.1228 41.7209 58.2898 39.6886 59.9905C37.6563 61.6912 35.2599 62.5416 32.4996 62.5416C29.3579 62.5416 26.6767 61.4169 24.4559 59.1676C22.235 56.9183 21.1246 54.2027 21.1246 51.0207C21.1246 48.2228 21.9642 45.7958 23.6434 43.7396C25.3225 41.6834 27.4621 40.3525 30.0621 39.7468L27.8684 37.5249H12.9996V65.8332ZM32.4996 55.9582C33.8538 55.9582 35.0054 55.4788 35.9544 54.5198C36.9034 53.5608 37.3768 52.3945 37.3746 51.0207C37.3724 49.647 36.899 48.4818 35.9544 47.525C35.0097 46.5682 33.8581 46.0876 32.4996 46.0833C31.1411 46.0789 29.9906 46.5594 29.0481 47.525C28.1056 48.4906 27.6311 49.6558 27.6246 51.0207C27.6181 52.3857 28.0926 53.552 29.0481 54.5198C30.0036 55.4875 31.1541 55.967 32.4996 55.9582ZM58.4996 49.7864L51.9996 43.203V37.5249H46.3934L35.3434 26.3333H40.8684L45.0121 30.9416H53.6246C54.9788 30.9416 56.1304 31.4222 57.0794 32.3833C58.0284 33.3445 58.5018 34.5097 58.4996 35.8791V49.7864ZM61.7496 36.2083V23.0416H58.4996V6.58325H71.4996L66.2996 18.4333H71.4996L61.7496 36.2083Z" fill="#2B2B2B"/>
</svg>
