<svg width="70" height="70" viewBox="0 0 70 70" fill="none" xmlns="http://www.w3.org/2000/svg">
<path d="M34.9932 0C31.5342 0 28.54 2.00977 27.1182 4.92188C26.1611 4.56641 25.1357 4.375 24.0557 4.375C19.2295 4.375 15.3057 8.29883 15.3057 13.125V35.752L14.9365 35.3828C11.5186 31.9648 5.98145 31.9648 2.56348 35.3828C-0.854492 38.8008 -0.854492 44.3379 2.56348 47.7559L14.5537 59.7461C21.1162 66.3086 30.0166 70 39.2998 70H41.5557C41.7607 70 41.9658 69.9863 42.1709 69.9453C54.708 69.0977 64.7295 59.0898 65.5635 46.5527C65.6045 46.3477 65.6182 46.1426 65.6182 45.9375V21.875C65.6182 17.0488 61.6943 13.125 56.8682 13.125C56.1162 13.125 55.3779 13.2207 54.6807 13.3984V13.125C54.6807 8.29883 50.7568 4.375 45.9307 4.375C44.8506 4.375 43.8252 4.56641 42.8682 4.92188C41.4463 2.00977 38.4521 0 34.9932 0ZM32.8057 13.1387V8.75C32.8057 7.54688 33.79 6.5625 34.9932 6.5625C36.1963 6.5625 37.1807 7.54688 37.1807 8.75V31.7188C37.1807 33.5371 38.6436 35 40.4619 35C42.2803 35 43.7432 33.5371 43.7432 31.7188V13.1113C43.7432 11.9082 44.7275 10.9238 45.9307 10.9238C47.1338 10.9238 48.1182 11.9082 48.1182 13.1113V31.7051C48.1182 33.5234 49.5811 34.9863 51.3994 34.9863C53.2178 34.9863 54.6807 33.5234 54.6807 31.7051V21.8613C54.6807 20.6582 55.665 19.6738 56.8682 19.6738C58.0713 19.6738 59.0557 20.6582 59.0557 21.8613V45.5C59.042 45.582 59.042 45.6777 59.0283 45.7598C58.5635 55.2891 50.9209 62.9316 41.3916 63.3965C41.3096 63.3965 41.2139 63.4102 41.1318 63.4238H39.2998C31.7529 63.4238 24.5205 60.4297 19.1885 55.0977L7.19824 43.1074C6.35059 42.2598 6.35059 40.8652 7.19824 40.0176C8.0459 39.1699 9.44043 39.1699 10.2881 40.0176L16.2627 45.9922C17.2061 46.9355 18.6143 47.209 19.8447 46.7031C21.0752 46.1973 21.8682 44.9941 21.8682 43.668V13.125C21.8682 11.9219 22.8525 10.9375 24.0557 10.9375C25.2588 10.9375 26.2432 11.9082 26.2432 13.1113V31.7188C26.2432 33.5371 27.7061 35 29.5244 35C31.3428 35 32.8057 33.5371 32.8057 31.7188V13.1387Z" fill="#2B2B2B"/>
</svg>
