<svg width="44" height="98" viewBox="0 0 44 98" fill="none" xmlns="http://www.w3.org/2000/svg">
<path d="M24.8819 38.6503C24.5933 39.1605 24.1744 39.585 23.6681 39.8803C23.1617 40.1757 22.5861 40.3313 21.9999 40.3313C21.4137 40.3313 20.838 40.1757 20.3317 39.8803C19.8253 39.585 19.4065 39.1605 19.1179 38.6503L4.11388 12.3639C2.83788 10.1273 4.44021 7.33325 7.00321 7.33325H37.0039C39.5632 7.33325 41.1655 10.1273 39.8895 12.3639L24.8819 38.6503ZM21.9999 36.2303L36.3622 11.0623H7.63754L21.9999 36.2303Z" fill="black"/>
<path d="M24.8819 92.6503C24.5933 93.1605 24.1744 93.585 23.6681 93.8803C23.1617 94.1757 22.5861 94.3313 21.9999 94.3313C21.4137 94.3313 20.838 94.1757 20.3317 93.8803C19.8253 93.585 19.4065 93.1605 19.1179 92.6503L4.11388 66.3639C2.83788 64.1273 4.44021 61.3333 7.00321 61.3333H37.0039C39.5632 61.3333 41.1655 64.1273 39.8895 66.3639L24.8819 92.6503ZM21.9999 90.2303L36.3622 65.0623H7.63754L21.9999 90.2303Z" fill="black"/>
</svg>
