<svg width="31" height="29" viewBox="0 0 31 29" fill="none" xmlns="http://www.w3.org/2000/svg">
<g clip-path="url(#clip0_2021_137)">
<path d="M24.4167 5.83333H21.5C21.5 2.61042 18.8896 0 15.6667 0C12.4438 0 9.83333 2.61042 9.83333 5.83333H6.91667C5.3125 5.83333 4 7.14583 4 8.75V26.25C4 27.8542 5.3125 29.1667 6.91667 29.1667H24.4167C26.0208 29.1667 27.3333 27.8542 27.3333 26.25V8.75C27.3333 7.14583 26.0208 5.83333 24.4167 5.83333ZM15.6667 2.91667C17.2708 2.91667 18.5833 4.22917 18.5833 5.83333H12.75C12.75 4.22917 14.0625 2.91667 15.6667 2.91667ZM24.4167 26.25H6.91667V8.75H9.83333V11.6667C9.83333 12.4688 10.4896 13.125 11.2917 13.125C12.0938 13.125 12.75 12.4688 12.75 11.6667V8.75H18.5833V11.6667C18.5833 12.4688 19.2396 13.125 20.0417 13.125C20.8438 13.125 21.5 12.4688 21.5 11.6667V8.75H24.4167V26.25Z" fill="#8F6859"/>
</g>
<defs>
<clipPath id="clip0_2021_137">
<rect width="31" height="29" fill="white"/>
</clipPath>
</defs>
</svg>
