<svg width="34" height="31" viewBox="0 0 34 31" fill="none" xmlns="http://www.w3.org/2000/svg">
<path d="M15.0556 1.25601C15.575 0.851932 16.2074 0.61971 16.8649 0.591618C17.5224 0.563526 18.1723 0.740959 18.7242 1.09926L18.9443 1.25759L32.219 11.5809C33.3606 12.4692 32.8048 14.2599 31.4289 14.4072L31.2452 14.4167H29.6666V27.0833C29.6669 27.8823 29.3652 28.6517 28.8219 29.2375C28.2787 29.8233 27.5341 30.1822 26.7375 30.2421L26.5 30.25H7.49998C6.70134 30.2499 5.93225 29.948 5.34678 29.4048C4.76131 28.8616 4.40271 28.1172 4.34281 27.3208L4.33331 27.0833V14.4167H2.75473C1.30914 14.4167 0.645727 12.6623 1.64164 11.7013L1.78098 11.5809L15.0556 1.25601ZM17 3.75609L6.90623 11.6063C7.26881 11.8992 7.49998 12.3473 7.49998 12.8492V27.0833H12.25V19.1667C12.25 17.9069 12.7504 16.6987 13.6412 15.8079C14.532 14.9171 15.7402 14.4167 17 14.4167C18.2598 14.4167 19.4679 14.9171 20.3587 15.8079C21.2495 16.6987 21.75 17.9069 21.75 19.1667V27.0833H26.5V12.8492C26.5 12.3473 26.7311 11.8992 27.0937 11.6063L17 3.75609ZM17 17.5833C16.5801 17.5833 16.1773 17.7502 15.8804 18.0471C15.5835 18.344 15.4166 18.7467 15.4166 19.1667V27.0833H18.5833V19.1667C18.5833 18.7467 18.4165 18.344 18.1196 18.0471C17.8226 17.7502 17.4199 17.5833 17 17.5833Z" fill="#8F6859"/>
</svg>
