<svg width="53" height="53" viewBox="0 0 53 53" fill="none" xmlns="http://www.w3.org/2000/svg">
<path d="M17.2253 4.41699H35.7753C42.842 4.41699 48.5837 10.1587 48.5837 17.2253V35.7753C48.5837 39.1723 47.2342 42.4302 44.8322 44.8322C42.4302 47.2342 39.1723 48.5837 35.7753 48.5837H17.2253C10.1587 48.5837 4.41699 42.842 4.41699 35.7753V17.2253C4.41699 13.8283 5.76644 10.5705 8.16847 8.16847C10.5705 5.76644 13.8283 4.41699 17.2253 4.41699ZM16.7837 8.83366C14.6752 8.83366 12.6531 9.67125 11.1622 11.1622C9.67125 12.6531 8.83366 14.6752 8.83366 16.7837V36.217C8.83366 40.6116 12.3891 44.167 16.7837 44.167H36.217C38.3255 44.167 40.3476 43.3294 41.8385 41.8385C43.3294 40.3476 44.167 38.3255 44.167 36.217V16.7837C44.167 12.3891 40.6116 8.83366 36.217 8.83366H16.7837ZM38.0941 12.1462C38.8262 12.1462 39.5283 12.437 40.046 12.9547C40.5637 13.4723 40.8545 14.1745 40.8545 14.9066C40.8545 15.6387 40.5637 16.3408 40.046 16.8585C39.5283 17.3762 38.8262 17.667 38.0941 17.667C37.362 17.667 36.6598 17.3762 36.1422 16.8585C35.6245 16.3408 35.3337 15.6387 35.3337 14.9066C35.3337 14.1745 35.6245 13.4723 36.1422 12.9547C36.6598 12.437 37.362 12.1462 38.0941 12.1462ZM26.5003 15.4587C29.4288 15.4587 32.2373 16.622 34.308 18.6927C36.3787 20.7634 37.542 23.5719 37.542 26.5003C37.542 29.4288 36.3787 32.2373 34.308 34.308C32.2373 36.3787 29.4288 37.542 26.5003 37.542C23.5719 37.542 20.7634 36.3787 18.6927 34.308C16.622 32.2373 15.4587 29.4288 15.4587 26.5003C15.4587 23.5719 16.622 20.7634 18.6927 18.6927C20.7634 16.622 23.5719 15.4587 26.5003 15.4587ZM26.5003 19.8753C24.7433 19.8753 23.0582 20.5733 21.8157 21.8157C20.5733 23.0582 19.8753 24.7433 19.8753 26.5003C19.8753 28.2574 20.5733 29.9425 21.8157 31.1849C23.0582 32.4273 24.7433 33.1253 26.5003 33.1253C28.2574 33.1253 29.9425 32.4273 31.1849 31.1849C32.4273 29.9425 33.1253 28.2574 33.1253 26.5003C33.1253 24.7433 32.4273 23.0582 31.1849 21.8157C29.9425 20.5733 28.2574 19.8753 26.5003 19.8753Z" fill="black"/>
</svg>
