<svg width="30" height="30" viewBox="0 0 30 30" fill="none" xmlns="http://www.w3.org/2000/svg">
<path d="M15 0C6.71371 0 0 6.71371 0 15C0 23.2863 6.71371 30 15 30C23.2863 30 30 23.2863 30 15C30 6.71371 23.2863 0 15 0ZM15 27.0968C8.32863 27.0968 2.90323 21.6714 2.90323 15C2.90323 8.32863 8.32863 2.90323 15 2.90323C21.6714 2.90323 27.0968 8.32863 27.0968 15C27.0968 21.6714 21.6714 27.0968 15 27.0968ZM10.1613 14.0323C11.2319 14.0323 12.0968 13.1673 12.0968 12.0968C12.0968 11.0262 11.2319 10.1613 10.1613 10.1613C9.09073 10.1613 8.22581 11.0262 8.22581 12.0968C8.22581 13.1673 9.09073 14.0323 10.1613 14.0323ZM19.8387 14.0323C20.9093 14.0323 21.7742 13.1673 21.7742 12.0968C21.7742 11.0262 20.9093 10.1613 19.8387 10.1613C18.7681 10.1613 17.9032 11.0262 17.9032 12.0968C17.9032 13.1673 18.7681 14.0323 19.8387 14.0323ZM20.0806 18.4234C18.8226 19.9355 16.9657 20.8065 15 20.8065C13.0343 20.8065 11.1774 19.9415 9.91936 18.4234C9.40524 17.8065 8.48589 17.7278 7.875 18.2359C7.25806 18.75 7.17944 19.6633 7.6875 20.2802C9.50202 22.4577 12.1694 23.7036 15 23.7036C17.8306 23.7036 20.498 22.4577 22.3125 20.2802C22.8266 19.6633 22.7419 18.75 22.125 18.2359C21.5141 17.7278 20.5948 17.8065 20.0806 18.4234Z" fill="#8F6859"/>
</svg>
