<svg width="31" height="30" viewBox="0 0 31 30" fill="none" xmlns="http://www.w3.org/2000/svg">
<path d="M15.5 30C6.93935 30 0 23.2845 0 15C0 6.7155 6.93935 0 15.5 0C24.0606 0 31 6.7155 31 15C31 23.2845 24.0606 30 15.5 30ZM15.5 27C18.7887 27 21.9427 25.7357 24.2681 23.4853C26.5936 21.2348 27.9 18.1826 27.9 15C27.9 11.8174 26.5936 8.76515 24.2681 6.51472C21.9427 4.26428 18.7887 3 15.5 3C12.2113 3 9.05733 4.26428 6.73188 6.51472C4.40643 8.76515 3.1 11.8174 3.1 15C3.1 18.1826 4.40643 21.2348 6.73188 23.4853C9.05733 25.7357 12.2113 27 15.5 27ZM17.05 16.5H21.7V19.5H17.05V22.5H13.95V19.5H9.3V16.5H13.95V15H9.3V12H13.3083L10.0192 8.8155L12.2125 6.6945L15.4985 9.8775L18.7875 6.6945L20.9793 8.8155L17.6933 11.9985H21.7V14.9985H17.05V16.5Z" fill="#8F6859"/>
</svg>
