<svg width="38" height="37" viewBox="0 0 38 37" fill="none" xmlns="http://www.w3.org/2000/svg">
<path d="M19 37C8.5063 37 0 28.7176 0 18.5C0 8.28245 8.5063 0 19 0C29.4937 0 38 8.28245 38 18.5C38 28.7176 29.4937 37 19 37ZM19 33.3C23.0313 33.3 26.8975 31.7407 29.748 28.9652C32.5986 26.1896 34.2 22.4252 34.2 18.5C34.2 14.5748 32.5986 10.8104 29.748 8.03482C26.8975 5.25928 23.0313 3.7 19 3.7C14.9687 3.7 11.1025 5.25928 8.25198 8.03482C5.40142 10.8104 3.8 14.5748 3.8 18.5C3.8 22.4252 5.40142 26.1896 8.25198 28.9652C11.1025 31.7407 14.9687 33.3 19 33.3ZM20.9 20.35H26.6V24.05H20.9V27.75H17.1V24.05H11.4V20.35H17.1V18.5H11.4V14.8H16.3134L12.2816 10.8724L14.9701 8.25655L18.9981 12.1823L23.0299 8.25655L25.7165 10.8724L21.6885 14.7982H26.6V18.4981H20.9V20.35Z" fill="#8F6859"/>
</svg>
