<svg width="35" height="31" viewBox="0 0 35 31" fill="none" xmlns="http://www.w3.org/2000/svg">
<g clip-path="url(#clip0_2021_143)">
<path d="M30.7466 16.4007C30.7466 22.6678 24.5695 27.7477 16.95 27.7477C9.3304 27.7477 3.15335 22.6678 3.15335 16.4007M10.0517 6.5714C12.0813 5.60691 14.4367 5.05374 16.95 5.05374C19.4632 5.05374 21.8186 5.60691 23.8483 6.5714" stroke="#8F6859" stroke-width="4" stroke-linecap="round"/>
<path d="M3.15335 16.4008V3.98146C3.15335 2.75386 4.72463 2.10566 5.71109 2.9269L10.0517 6.53808M30.7466 16.4008V3.98146C30.7466 2.75386 29.1753 2.10566 28.1888 2.9269L23.8483 6.53808" stroke="#8F6859" stroke-width="4" stroke-linecap="round" stroke-linejoin="round"/>
<path d="M21.5488 14.9824C22.3955 14.9824 23.0818 14.3474 23.0818 13.564C23.0818 12.7807 22.3955 12.1456 21.5488 12.1456C20.7022 12.1456 20.0159 12.7807 20.0159 13.564C20.0159 14.3474 20.7022 14.9824 21.5488 14.9824Z" fill="#8F6859"/>
<path d="M12.3511 14.9824C13.1977 14.9824 13.884 14.3474 13.884 13.564C13.884 12.7807 13.1977 12.1456 12.3511 12.1456C11.5044 12.1456 10.8181 12.7807 10.8181 13.564C10.8181 14.3474 11.5044 14.9824 12.3511 14.9824Z" fill="#8F6859"/>
<path d="M16.9499 19.2375C17.7966 19.2375 18.4829 18.6025 18.4829 17.8191C18.4829 17.0358 17.7966 16.4008 16.9499 16.4008C16.1033 16.4008 15.417 17.0358 15.417 17.8191C15.417 18.6025 16.1033 19.2375 16.9499 19.2375Z" fill="#8F6859"/>
<path d="M10.8181 19.2375L1.62039 19.9467M13.1176 22.7834L3.91983 27.0386M23.0818 19.2375L32.2795 19.9467M20.7823 22.7834L29.9801 27.0386" stroke="#8F6859" stroke-width="4" stroke-linecap="round" stroke-linejoin="round"/>
</g>
<defs>
<clipPath id="clip0_2021_143">
<rect width="35" height="31" fill="white"/>
</clipPath>
</defs>
</svg>
