<svg width="25" height="30" viewBox="0 0 25 30" fill="none" xmlns="http://www.w3.org/2000/svg">
<path d="M1.54093e-06 21.3158V6.3158C1.54093e-06 4.92106 0.358335 3.80896 1.075 2.97948C1.79167 2.15001 2.73542 1.51843 3.90625 1.08475C5.07708 0.651064 6.41198 0.36159 7.91094 0.216327C9.4099 0.0710641 10.9396 -0.00104127 12.5 1.13593e-05C14.2188 1.13593e-05 15.8401 0.0726429 17.3641 0.217906C18.888 0.363169 20.2161 0.652643 21.3484 1.08633C22.4807 1.52001 23.3724 2.15159 24.0234 2.98106C24.6745 3.81054 25 4.92211 25 6.3158V21.3158C25 22.8684 24.4729 24.1779 23.4188 25.2442C22.3646 26.3105 21.0687 26.8432 19.5312 26.8421L21.875 29.2105V30H18.75L15.625 26.8421H9.375L6.25 30H3.125V29.2105L5.46875 26.8421C3.93229 26.8421 2.63646 26.3095 1.58125 25.2442C0.526043 24.179 -0.00104013 22.8695 1.54093e-06 21.3158ZM12.5 3.1579C9.73958 3.1579 7.72135 3.32264 6.44531 3.65212C5.16927 3.98159 4.29688 4.34317 3.82813 4.73685H21.3281C20.9375 4.28948 20.0979 3.91475 18.8094 3.61264C17.5208 3.31054 15.4177 3.15896 12.5 3.1579ZM3.125 12.6316H10.9375V7.89474H3.125V12.6316ZM19.5312 15.7895H3.125H21.875H19.5312ZM14.0625 12.6316H21.875V7.89474H14.0625V12.6316ZM7.03125 22.1053C7.70833 22.1053 8.26823 21.8816 8.71094 21.4342C9.15365 20.9868 9.375 20.4211 9.375 19.7368C9.375 19.0526 9.15365 18.4868 8.71094 18.0395C8.26823 17.5921 7.70833 17.3684 7.03125 17.3684C6.35417 17.3684 5.79427 17.5921 5.35156 18.0395C4.90886 18.4868 4.6875 19.0526 4.6875 19.7368C4.6875 20.4211 4.90886 20.9868 5.35156 21.4342C5.79427 21.8816 6.35417 22.1053 7.03125 22.1053ZM17.9688 22.1053C18.6458 22.1053 19.2057 21.8816 19.6484 21.4342C20.0911 20.9868 20.3125 20.4211 20.3125 19.7368C20.3125 19.0526 20.0911 18.4868 19.6484 18.0395C19.2057 17.5921 18.6458 17.3684 17.9688 17.3684C17.2917 17.3684 16.7318 17.5921 16.2891 18.0395C15.8464 18.4868 15.625 19.0526 15.625 19.7368C15.625 20.4211 15.8464 20.9868 16.2891 21.4342C16.7318 21.8816 17.2917 22.1053 17.9688 22.1053ZM5.46875 23.6842H19.5312C20.2083 23.6842 20.7682 23.4605 21.2109 23.0132C21.6536 22.5658 21.875 22 21.875 21.3158V15.7895H3.125V21.3158C3.125 22 3.34636 22.5658 3.78906 23.0132C4.23177 23.4605 4.79167 23.6842 5.46875 23.6842ZM12.5 4.73685H21.3281H3.82813H12.5Z" fill="#8F6859"/>
</svg>
