<svg width="61" height="45" viewBox="0 0 61 45" fill="none" xmlns="http://www.w3.org/2000/svg">
<g clip-path="url(#clip0_2593_285)">
<path d="M30.4997 2.16699C32.6728 2.16699 34.9018 2.22291 37.0623 2.31441L39.6141 2.43641L42.0566 2.58128L44.3441 2.73633L46.4334 2.89899C48.701 3.07155 50.835 4.03876 52.4596 5.63027C54.0841 7.22178 55.0949 9.3355 55.314 11.5991L55.4156 12.6793L55.6063 14.9922C55.7842 17.389 55.9163 20.0019 55.9163 22.5003C55.9163 24.9988 55.7842 27.6116 55.6063 30.0084L55.4156 32.3213L55.314 33.4015C55.0948 35.6656 54.0836 37.7796 52.4586 39.3712C50.8336 40.9627 48.6989 41.9297 46.4308 42.1017L44.3467 42.2618L42.0592 42.4194L39.6141 42.5642L37.0623 42.6862C34.876 42.7809 32.688 42.8301 30.4997 42.8337C28.3114 42.8301 26.1234 42.7809 23.9371 42.6862L21.3853 42.5642L18.9427 42.4194L16.6552 42.2618L14.566 42.1017C12.2983 41.9291 10.1643 40.9619 8.53979 39.3704C6.91527 37.7789 5.90445 35.6652 5.68538 33.4015L5.58372 32.3213L5.39309 30.0084C5.1995 27.5103 5.09607 25.0059 5.08301 22.5003C5.08301 20.0019 5.21517 17.389 5.39309 14.9922L5.58372 12.6793L5.68538 11.5991C5.90437 9.3359 6.91482 7.2225 8.53882 5.63104C10.1628 4.03959 12.2962 3.07212 14.5634 2.89899L16.6501 2.73633L18.9376 2.58128L21.3827 2.43641L23.9345 2.31441C26.1217 2.21967 28.3105 2.17052 30.4997 2.16699ZM30.4997 7.25033C28.4028 7.25033 26.2449 7.30624 24.1455 7.39266L21.6598 7.51212L19.2731 7.65191L17.0314 7.80441L14.9777 7.96453C13.898 8.04012 12.8801 8.49606 12.1048 9.25134C11.3295 10.0066 10.8471 11.0123 10.7433 12.0897C10.4459 15.1625 10.1663 18.9877 10.1663 22.5003C10.1663 26.0129 10.4459 29.8381 10.7433 32.911C10.9593 35.1273 12.7182 36.8506 14.9777 37.0361L17.0314 37.1937L19.2731 37.3462L21.6598 37.4885L24.1455 37.608C26.2449 37.6944 28.4028 37.7503 30.4997 37.7503C32.5965 37.7503 34.7544 37.6944 36.8538 37.608L39.3396 37.4885L41.7262 37.3487L43.968 37.1962L46.0216 37.0361C47.1013 36.9605 48.1193 36.5046 48.8946 35.7493C49.6699 34.994 50.1523 33.9884 50.2561 32.911C50.5534 29.8381 50.833 26.0129 50.833 22.5003C50.833 18.9877 50.5534 15.1625 50.2561 12.0897C50.1523 11.0123 49.6699 10.0066 48.8946 9.25134C48.1193 8.49606 47.1013 8.04012 46.0216 7.96453L43.968 7.80695L41.7262 7.65445L39.3396 7.51212L36.8538 7.39266C34.737 7.3018 32.6185 7.25435 30.4997 7.25033ZM25.4163 16.3368C25.4162 16.0884 25.4767 15.8437 25.5926 15.624C25.7086 15.4043 25.8765 15.2162 26.0816 15.0762C26.2868 14.9362 26.5231 14.8484 26.7699 14.8204C27.0168 14.7925 27.2667 14.8253 27.498 14.916L27.7038 15.0177L38.3788 21.1787C38.5914 21.3013 38.7712 21.4735 38.9031 21.6805C39.0349 21.8875 39.1148 22.1233 39.136 22.3678C39.1572 22.6123 39.1191 22.8583 39.0249 23.0849C38.9307 23.3115 38.7832 23.5121 38.5949 23.6695L38.3788 23.822L27.7038 29.9855C27.4887 30.1101 27.2464 30.1802 26.998 30.1897C26.7496 30.1992 26.5026 30.1479 26.2786 30.0401C26.0546 29.9324 25.8603 29.7715 25.7127 29.5715C25.5651 29.3715 25.4686 29.1384 25.4316 28.8926L25.4163 28.6639V16.3368Z" fill="black"/>
</g>
<defs>
<clipPath id="clip0_2593_285">
<rect width="61" height="45" fill="white"/>
</clipPath>
</defs>
</svg>
