<svg width="27" height="27" viewBox="0 0 27 27" fill="none" xmlns="http://www.w3.org/2000/svg">
<path d="M1 12.1111C1 6.87361 1 4.25417 2.62778 2.62778C4.25556 1.00139 6.87361 1 12.1111 1H14.8889C20.1264 1 22.7458 1 24.3722 2.62778C25.9986 4.25556 26 6.87361 26 12.1111V14.8889C26 20.1264 26 22.7458 24.3722 24.3722C22.7444 25.9986 20.1264 26 14.8889 26H12.1111C6.87361 26 4.25417 26 2.62778 24.3722C1.00139 22.7444 1 20.1264 1 14.8889V12.1111Z" stroke="white" stroke-width="2"/>
<path d="M19.2501 9.33366C20.4007 9.33366 21.3334 8.40092 21.3334 7.25033C21.3334 6.09973 20.4007 5.16699 19.2501 5.16699C18.0995 5.16699 17.1667 6.09973 17.1667 7.25033C17.1667 8.40092 18.0995 9.33366 19.2501 9.33366Z" fill="white"/>
<path d="M12.9999 17.6663C15.3011 17.6663 17.1666 15.8009 17.1666 13.4997C17.1666 11.1985 15.3011 9.33301 12.9999 9.33301C10.6987 9.33301 8.83325 11.1985 8.83325 13.4997C8.83325 15.8009 10.6987 17.6663 12.9999 17.6663Z" stroke="white" stroke-width="2"/>
</svg>
