<svg width="39" height="39" viewBox="0 0 39 39" fill="none" xmlns="http://www.w3.org/2000/svg">
<g clip-path="url(#clip0_2195_131)">
<path d="M19.5 6.5C20.8894 6.5 22.3145 6.53575 23.6957 6.59425L25.3273 6.67225L26.8889 6.76488L28.3514 6.864L29.6871 6.968C31.1369 7.07832 32.5013 7.69671 33.5399 8.71423C34.5786 9.73175 35.2248 11.0831 35.3649 12.5304L35.4299 13.221L35.5518 14.6997C35.6655 16.2321 35.75 17.9026 35.75 19.5C35.75 21.0974 35.6655 22.7679 35.5518 24.3003L35.4299 25.779L35.3649 26.4696C35.2248 27.9171 34.5783 29.2687 33.5393 30.2863C32.5004 31.3038 31.1356 31.922 29.6855 32.032L28.353 32.1344L26.8905 32.2351L25.3273 32.3277L23.6957 32.4057C22.298 32.4663 20.8991 32.4977 19.5 32.5C18.1009 32.4977 16.702 32.4663 15.3043 32.4057L13.6727 32.3277L12.1111 32.2351L10.6486 32.1344L9.31287 32.032C7.86307 31.9217 6.4987 31.3033 5.46007 30.2858C4.42144 29.2682 3.77519 27.9169 3.63512 26.4696L3.57013 25.779L3.44825 24.3003C3.32448 22.7031 3.25835 21.1019 3.25 19.5C3.25 17.9026 3.3345 16.2321 3.44825 14.6997L3.57013 13.221L3.63512 12.5304C3.77513 11.0834 4.42116 9.73221 5.45945 8.71472C6.49775 7.69723 7.86174 7.07869 9.31125 6.968L10.6454 6.864L12.1079 6.76488L13.6711 6.67225L15.3026 6.59425C16.7009 6.53368 18.1004 6.50226 19.5 6.5ZM19.5 9.75C18.1594 9.75 16.7797 9.78575 15.4375 9.841L13.8483 9.91738L12.3224 10.0068L10.8891 10.1042L9.57613 10.2066C8.88582 10.255 8.235 10.5465 7.73932 11.0293C7.24365 11.5122 6.93523 12.1552 6.86888 12.844C6.67875 14.8086 6.5 17.2542 6.5 19.5C6.5 21.7458 6.67875 24.1914 6.86888 26.156C7.007 27.573 8.1315 28.6747 9.57613 28.7934L10.8891 28.8941L12.3224 28.9916L13.8483 29.0826L15.4375 29.159C16.7797 29.2143 18.1594 29.25 19.5 29.25C20.8406 29.25 22.2202 29.2143 23.5625 29.159L25.1517 29.0826L26.6776 28.9932L28.1109 28.8958L29.4239 28.7934C30.1142 28.745 30.765 28.4535 31.2607 27.9707C31.7563 27.4878 32.0648 26.8448 32.1311 26.156C32.3213 24.1914 32.5 21.7458 32.5 19.5C32.5 17.2542 32.3213 14.8086 32.1311 12.844C32.0648 12.1552 31.7563 11.5122 31.2607 11.0293C30.765 10.5465 30.1142 10.255 29.4239 10.2066L28.1109 10.1059L26.6776 10.0084L25.1517 9.91738L23.5625 9.841C22.2091 9.78291 20.8546 9.75257 19.5 9.75ZM16.25 15.5594C16.2499 15.4006 16.2886 15.2441 16.3627 15.1037C16.4369 14.9632 16.5442 14.843 16.6754 14.7534C16.8065 14.6639 16.9576 14.6078 17.1154 14.5899C17.2732 14.5721 17.433 14.593 17.5809 14.651L17.7125 14.716L24.5375 18.655C24.6734 18.7334 24.7884 18.8435 24.8727 18.9758C24.9569 19.1082 25.008 19.2589 25.0216 19.4153C25.0351 19.5716 25.0108 19.7289 24.9505 19.8738C24.8903 20.0186 24.796 20.1469 24.6756 20.2475L24.5375 20.345L17.7125 24.2856C17.575 24.3653 17.42 24.4101 17.2612 24.4162C17.1024 24.4223 16.9445 24.3894 16.8013 24.3205C16.6581 24.2516 16.5339 24.1488 16.4395 24.0209C16.3451 23.893 16.2834 23.744 16.2597 23.5869L16.25 23.4406V15.5594Z" fill="white"/>
</g>
<defs>
<clipPath id="clip0_2195_131">
<rect width="39" height="39" fill="white"/>
</clipPath>
</defs>
</svg>
